<svg xmlns="http://www.w3.org/2000/svg" viewBox="0 0 493.818 194.727"><path fill="#000" d="M43.957 116.956H6.176V87.258H.59v66.117h5.585v-31.696h37.781v31.696h5.631V87.258h-5.631v29.698zm77.565-26.929c-3.89-2.452-8.378-3.678-13.464-3.678s-9.582 1.249-13.487 3.746c-3.905 2.498-6.925 6.07-9.06 10.717-2.134 4.647-3.201 9.983-3.201 16.007v6.812c0 9.386 2.376 16.841 7.129 22.365 4.752 5.524 10.989 8.287 18.709 8.287 5.116 0 9.627-1.241 13.532-3.724s6.909-6.024 9.014-10.626c2.104-4.602 3.156-9.945 3.156-16.03v-7.901c-.091-5.903-1.196-11.095-3.315-15.575-2.118-4.481-5.123-7.948-9.013-10.4zm6.744 33.696c0 8.082-1.771 14.388-5.313 18.913s-8.477 6.788-14.804 6.788c-6.237 0-11.171-2.293-14.804-6.879-3.633-4.587-5.449-10.8-5.449-18.642v-6.902c0-8.112 1.823-14.433 5.472-18.958 3.648-4.525 8.544-6.789 14.69-6.789 6.267 0 11.201 2.256 14.804 6.766 3.602 4.512 5.404 10.748 5.404 18.709v6.994zm78.359-5.804c2.482-3.235 3.724-6.97 3.724-11.203 0-6.138-1.982-10.915-5.948-14.332-3.967-3.417-9.476-5.126-16.529-5.126h-21.479v66.117h5.631v-27.564h19.208l15.984 27.564h5.948v-.591l-16.529-28.152c4.178-1.239 7.508-3.478 9.99-6.713zm-17.482 3.169h-17.12V91.98h15.757c5.358 0 9.521 1.289 12.487 3.866s4.45 6.2 4.45 10.869c0 4.245-1.423 7.702-4.269 10.37-2.844 2.67-6.614 4.003-11.305 4.003zm54.51 32.287h5.859V95.744h-5.859v57.631zm85.725-62.159v-3.958H283.7v4.723h38.775l-39.234 57.171v4.224h47.59v-4.723h-40.823l39.37-57.437zm68.892-1.189c-3.89-2.452-8.378-3.678-13.464-3.678s-9.581 1.249-13.486 3.746c-3.905 2.498-6.926 6.07-9.06 10.717-2.135 4.647-3.201 9.983-3.201 16.007v6.812c0 9.386 2.376 16.841 7.129 22.365s10.989 8.287 18.709 8.287c5.116 0 9.627-1.241 13.532-3.724s6.909-6.024 9.014-10.626 3.156-9.945 3.156-16.03v-7.901c-.091-5.903-1.196-11.095-3.314-15.575-2.121-4.481-5.126-7.948-9.015-10.4zm6.744 33.696c0 8.082-1.771 14.388-5.313 18.913s-8.477 6.788-14.804 6.788c-6.236 0-11.171-2.293-14.804-6.879-3.633-4.587-5.449-10.8-5.449-18.642v-6.902c0-8.112 1.823-14.433 5.472-18.958s8.545-6.789 14.69-6.789c6.267 0 11.201 2.256 14.804 6.766 3.603 4.512 5.404 10.748 5.404 18.709v6.994zm81.946-36.465v56.626l-38.054-56.626h-5.631v66.117h5.631V96.794l38.009 56.581h5.585V87.258h-5.54zM16.022 170.926c-1.588-1.43-3.782-2.145-6.583-2.145H0v25.594h3.375v-10.02h6.029c2.894 0 5.118-.671 6.67-2.013s2.33-3.255 2.33-5.739c0-2.355-.794-4.248-2.382-5.677zm-2.434 9.393c-.961.851-2.344 1.276-4.148 1.276H3.375V171.54h6.258c1.675.035 2.994.511 3.955 1.426.96.916 1.441 2.137 1.441 3.663 0 1.609-.481 2.839-1.441 3.69zm49.16-.534H49.846v-11.004h-3.375v25.594h3.375v-11.83h12.902v11.83h3.393v-25.594h-3.393v11.004zm47.956-9.87c-1.564-.99-3.372-1.485-5.423-1.485-2.016 0-3.806.501-5.37 1.503s-2.774 2.446-3.63 4.333-1.283 4.061-1.283 6.521v1.846c.023 2.414.466 4.538 1.328 6.372.861 1.834 2.071 3.246 3.629 4.236s3.346 1.485 5.361 1.485c2.063 0 3.867-.492 5.414-1.477s2.743-2.411 3.586-4.28c.844-1.869 1.266-4.058 1.266-6.565v-1.617c0-2.496-.421-4.685-1.266-6.565-.843-1.881-2.047-3.317-3.612-4.307zm1.521 12.735c-.035 2.965-.65 5.241-1.846 6.829s-2.882 2.382-5.063 2.382c-2.168 0-3.87-.841-5.106-2.522-1.237-1.682-1.855-3.993-1.855-6.935v-1.881c.035-2.883.665-5.136 1.89-6.759s2.903-2.435 5.036-2.435c2.191 0 3.896.812 5.116 2.435 1.218 1.623 1.828 3.952 1.828 6.987v1.899zm30.07-11.109h8.209v22.834h3.357v-22.834h8.227v-2.76h-19.793v2.76zm62.16-1.626c-1.564-.99-3.372-1.485-5.423-1.485-2.016 0-3.806.501-5.371 1.503-1.564 1.002-2.774 2.446-3.63 4.333s-1.283 4.061-1.283 6.521v1.846c.023 2.414.466 4.538 1.328 6.372.861 1.834 2.071 3.246 3.63 4.236 1.559.99 3.346 1.485 5.361 1.485 2.063 0 3.867-.492 5.414-1.477s2.742-2.411 3.586-4.28 1.266-4.058 1.266-6.565v-1.617c0-2.496-.422-4.685-1.266-6.565s-2.047-3.317-3.612-4.307zm1.521 12.735c-.035 2.965-.65 5.241-1.846 6.829s-2.883 2.382-5.063 2.382c-2.168 0-3.87-.841-5.107-2.522-1.236-1.682-1.854-3.993-1.854-6.935v-1.881c.036-2.883.665-5.136 1.89-6.759 1.225-1.623 2.904-2.435 5.037-2.435 2.191 0 3.896.812 5.115 2.435s1.828 3.952 1.828 6.987v1.899zm36.512-9.077c1.166-1.589 2.88-2.384 5.142-2.384 3.398 0 5.414 1.699 6.047 5.098h3.375c-.363-2.508-1.359-4.444-2.988-5.81s-3.779-2.048-6.451-2.048c-3.258 0-5.786 1.061-7.585 3.182s-2.698 5.109-2.698 8.965v2.232c.023 2.379.478 4.471 1.362 6.275s2.136 3.196 3.753 4.175 3.469 1.468 5.555 1.468c2.063 0 3.87-.308 5.423-.923s2.763-1.544 3.63-2.786v-9.387h-9.281v2.76h5.924v5.734c-.621.667-1.406 1.141-2.355 1.421-.949.281-2.057.421-3.322.421-2.238 0-4.014-.848-5.326-2.542-1.313-1.695-1.969-3.979-1.969-6.853v-2.094c.009-3.012.598-5.314 1.764-6.904zm60.094 7.073c.861-1.184 1.292-2.572 1.292-4.166 0-2.508-.776-4.418-2.329-5.73s-3.771-1.969-6.653-1.969h-8.473v25.594h3.393v-10.354h6.012l5.555 10.354H305v-.211l-6.012-10.863c1.534-.586 2.733-1.471 3.594-2.655zm-7.585.616h-5.186v-9.721h5.168c1.781.012 3.144.44 4.087 1.286.943.845 1.415 2.06 1.415 3.645 0 1.456-.495 2.618-1.485 3.487-.99.868-2.323 1.303-3.999 1.303zm44.66-12.481l-9.773 25.594h3.48l2.408-6.697h10.723l2.443 6.697h3.463l-9.791-25.594h-2.953zm-2.865 16.137l4.342-11.971 4.359 11.971h-8.701zm58.838-13.992c-1.588-1.43-3.782-2.145-6.583-2.145h-9.439v25.594h3.375v-10.02h6.029c2.894 0 5.118-.671 6.671-2.013s2.329-3.255 2.329-5.739c0-2.355-.794-4.248-2.382-5.677zm-2.435 9.393c-.961.851-2.344 1.276-4.148 1.276h-6.064V171.54h6.258c1.676.035 2.994.511 3.955 1.426.961.916 1.441 2.137 1.441 3.663 0 1.609-.481 2.839-1.442 3.69zm49.16-.534h-12.902v-11.004h-3.375v25.594h3.375v-11.83h12.902v11.83h3.393v-25.594h-3.393v11.004zm47.631-11.004l-6.68 12.85-6.645-12.85h-3.867l8.824 16.049v9.545h3.375v-9.545l8.824-16.049h-3.831z"/><path fill="#000" d="M238.966 36.691l1.668-.488-5.544-12.465-.102.029-.102.03 2.41 13.382 1.67-.488zm-6.754 3.098l2.211-1.277-14.696-20.698-.136.077-.135.078 10.543 23.097 2.213-1.277zm-4.422 11.634l5.899 10.326 17.206-19.357c-2.893-.617-6.272-.297-9.358.31-5.742 1.128-10.521 4.36-13.747 8.721zM246.705 10.9h-.312l-2.473 25.447h5.108L246.705 10.9zm6.469 32.038l-7.861 8.924 23.837 10.136c-.352-2.937-1.703-6.149-3.275-8.873-2.927-5.069-7.531-8.546-12.701-10.187zm47.628-26.079c-.249.24-.459.479-.364.649.095.168.806-.149 1.314-.575.508-.426 1.391-1.305 1.391-1.305s-.939 1.173-1.253 1.551-.716.886-.664.978.496-.016 1.124-.589c.628-.574 1.009-.867 1.054-.933.044-.065.15.017.232-.09 0 0-.487.898-.765 1.376-.183.315-.262.652-.042.61.116-.022.399-.224.699-.554.301-.329 1.051-1.335 1.051-1.335s-.307.858-.347 1.184c-.001.323.053.456.266.296.316-.238.543-.547.543-.547s-.126.354.094.312c.218-.041.618-.446.771-.715 0 0-.055.335.14.286s.475-.307.54-.443c0 0-.021.253.159.214.18-.04.54-.263.665-.474 0 0 .035.243.229.155s.39-.278.446-.393c0 0 .003.222.174.166s.292-.163.365-.286c0 0 .128.354.525-.071 0 0 .204.33.588-.066 0 0 .323.143.551-.208 0 0 .324.183.546-.144 0 0 .359.102.605-.217 0 0 .393.123.535-.199 0 0 .376.093.642-.299 0 0 .407.116.57-.278 0 0 .363.181.609-.281 0 0 .323.144.58-.264 0 0 .271.05.437-.123.165-.174.197-.333.197-.333s.096.027.287-.1c.191-.128.238-.296.235-.374 0 0 .277.026.388-.318 0 0 .166-.315.082.075-.119.329-.407 2.772-.502 3.432-.078.542-.063.682.219.646.111-.014.354-.198.354-.198s.159.329.408.297c.188-.024.36-.223.36-.223s.371.35.802-.045c0 0 .505.322.774-.17 0 0 .3.175.521.029.222-.144.239-.295.239-.295s.196.173.458.026c.263-.143.217-.398.217-.398s.137.065.377-.045c.241-.11.253-.458.253-.458.561.035.556-.563.556-.563.564-.155.467-.655.467-.655s.259-.04.38-.187c.16-.193-.033-.504-.033-.504s.284-.106.355-.193c.182-.22.072-.307-.429-.529-.608-.271-2.83-1.329-3.171-1.404-.376-.137-.021-.109-.021-.109.351.09.477-.159.477-.159.063.045.231.095.441.001.21-.095.237-.19.237-.19s.151.059.388.011c.234-.048.336-.304.336-.304.481 0 .532-.35.532-.35.521.037.563-.366.563-.366.421.072.541-.335.541-.335.472-.016.594-.383.594-.383.349.051.453-.348.453-.348a.591.591 0 00.507-.396c.394-.014.412-.386.412-.386.418-.006.469-.354.469-.354.54-.113.371-.463.371-.463.57-.109.34-.406.34-.406a.657.657 0 00.437-.157c.138-.114-.048-.234-.048-.234.127.012.393-.053.57-.17s-.01-.275-.01-.275c.244.007.625-.18.755-.31.129-.132-.096-.25-.096-.25.15.019.517-.081.662-.22.146-.14-.167-.271-.167-.271.309.013.864-.109 1.016-.271.152-.163-.213-.245-.213-.245s.381-.027.751-.168c.249-.096.166-.212-.108-.383-.296-.14-1.187-.338-1.187-.338s1.251-.099 1.689-.177c.439-.078.761-.211.841-.297.152-.163-.174-.276-.538-.29-.553-.02-1.572-.087-1.572-.087.134-.012.121-.146.2-.148.078-.003.53-.169 1.351-.395s1.147-.544 1.097-.637c-.049-.093-.694-.023-1.181.041-.486.063-1.979.233-1.979.233s1.213-.278 1.845-.481 1.279-.636 1.187-.806c-.093-.171-.406-.121-.743-.038-.336.083-1.729.36-1.729.36.844-.44 1.144-.884 1.063-.961-.082-.074-.247-.085-.592.021-.343.106-1.671.688-2.044.852s-.095-.028-.095-.028c.568-.43 1.018-.895.936-.971-.081-.076-.301-.037-.664.181s-.943.554-1.587.845c-.645.289-1.385.772-1.594.906-.208.133-.534.492-.821.628-.287.137-1.042.446-1.621.782-.581.336-1.774 1.387-2.187 1.771s-.619.558-1.062.778c-.441.221-1.32.819-1.598 1.01s-.586.14-.763.034c-.178-.104-.34-.217-.634-.498-.293-.282-.85-.42-.85-.42-.198-.253-.301-.258-.301-.258s-.051.089.058.392c0 0-.18.545-.098.943.081.399.091.596.085.801a.72.72 0 01-.437.628c-.31.133-1.284.558-1.706.813-.422.257-.679.34-1.225.483-.545.144-2.07.595-2.664.906-.593.312-1.257.784-1.525.955-.268.17-.746.255-.97.36s-1.027.475-1.615.865c-.591.39-1.183.701-1.561.893s-.528.356-.507.466c.021.109.653-.022 1.32-.274 0 0 .31-.133-.027.096s-1.537 1.042-1.811 1.276c-.272.234-.353.379-.332.488.021.11.557.093 1.379-.387.002.003-.975 1.034-1.224 1.274zm-74.798 27.578l1.2-1.257-11.042-8.078-.146.154 8.787 10.438 1.201-1.257zm29.624-7.346l1.461-13.6-.104-.024-.104-.025-4.631 12.826 1.688.412 1.69.411zm7.323 3.974l10.691-23.097-.136-.078-.135-.077-14.845 20.698 2.212 1.277 2.213 1.277zm5.219 4.539l8.093-11.175-.076-.073-.077-.073-10.453 8.921 2.513 2.4zm-12.193 40.378c2.701-1.206 5.432-3.677 7.568-5.985 3.974-4.295 5.933-9.722 5.97-15.146l-10.852-4.868-2.686 25.999zm31.499-32.626l-.029-.102-.03-.102-13.493 2.544.977 3.336 12.575-5.676zm5.846-15.725l-.077-.135-23.209 10.532 1.277 2.211 1.277 2.212 20.81-14.686-.078-.134zM476.24 62.295c-2.092-1.959-5.305-3.633-10.167-3.497-2.188.062-3.979.321-5.447.701-1.095-3.535-3.961-8.203-11.468-9.345-11.314-1.72-14.98 5.647-14.98 5.647s-7.765-5.014-14.261-.398c-3.306 2.349-4.66 4.924-5.199 6.892h-17.425c-5.23-4.553-12.986-3.065-12.986-3.065s1.753-6.016-4.957-11.887c-6.709-5.87-15.918-1.166-15.918-1.166s-3.248-8.614-16.037-7.979c-14.093.702-15.037 13.685-15.037 13.685-10.363-2.298-11.859 6.607-11.859 6.607-3.433-.624-6.746 1.018-9.078 3.805h-36.719l-.066 5.027h217.821v-5.027H476.24zM172.428 51.652c-10.708-4.043-15.764 5.629-15.764 5.629-6.931-5.135-11.028 1.225-11.028 1.225-3.791-2.584-9.342-.517-12.333 3.789h-18.714a15.559 15.559 0 00-1.143-2.768c-6.22-11.671-20.501-7.146-20.501-7.146s-.23-8.336-9.444-10.003c-9.214-1.668-14.282 6.431-14.282 6.431s0-7.384-14.051-9.527c-14.051-2.144-18.428 9.766-18.428 9.766-10.136-3.573-13.591 4.049-13.591 4.049-4.84-.135-8.935 4.109-10.559 9.198H.606v5.027H218.52v-5.027h-36.868c-.151-1.98-1.29-7.647-9.224-10.643zm27.347-13.945l-.078.135 20.663 14.733 1.276-2.212 1.277-2.212-23.061-10.58-.077.136zm5.576 16.673l-.024.103 12.79 4.617.822-3.377-13.563-1.446-.025.103zm21.059-.781c-1.491 2.555-2.245 5.979-2.634 9.1-.725 5.806.85 11.356 3.982 15.785l11.654-2.374-13.002-22.511zm10.643 32.018c5.247 2.589 11.007 2.923 16.218 1.417l1.582-11.787-25.518 5.014c1.924 2.246 4.897 3.965 7.718 5.356z"/></svg>